<mxfile host="app.diagrams.net" modified="2024-02-19T09:50:06.278Z" agent="Mozilla/5.0 (Macintosh; Intel Mac OS X 10_15_7) AppleWebKit/537.36 (KHTML, like Gecko) Chrome/120.0.0.0 Safari/537.36" etag="IkSe9PwTk5FOFLnCHpWE" version="22.1.19" type="github">
  <diagram name="第 1 页" id="rfUJBk4ZKK2CsFxvij_H">
    <mxGraphModel dx="819" dy="435" grid="1" gridSize="10" guides="1" tooltips="1" connect="1" arrows="1" fold="1" page="1" pageScale="1" pageWidth="1169" pageHeight="827" math="0" shadow="0">
      <root>
        <mxCell id="0" />
        <mxCell id="1" parent="0" />
        <mxCell id="0J6Xlk7utkjPn8iUu8PX-3" value="Node Server" style="rounded=0;whiteSpace=wrap;html=1;verticalAlign=top;glass=0;shadow=0;fontStyle=1" vertex="1" parent="1">
          <mxGeometry x="201" width="240" height="200" as="geometry" />
        </mxCell>
        <mxCell id="0J6Xlk7utkjPn8iUu8PX-1" value="Website" style="rounded=0;whiteSpace=wrap;html=1;verticalAlign=top;fontStyle=1" vertex="1" parent="1">
          <mxGeometry width="120" height="200" as="geometry" />
        </mxCell>
        <mxCell id="0J6Xlk7utkjPn8iUu8PX-11" style="edgeStyle=orthogonalEdgeStyle;rounded=0;orthogonalLoop=1;jettySize=auto;html=1;exitX=1;exitY=0.5;exitDx=0;exitDy=0;" edge="1" parent="1" source="0J6Xlk7utkjPn8iUu8PX-2" target="0J6Xlk7utkjPn8iUu8PX-4">
          <mxGeometry relative="1" as="geometry" />
        </mxCell>
        <mxCell id="0J6Xlk7utkjPn8iUu8PX-12" value="API request" style="edgeLabel;html=1;align=center;verticalAlign=middle;resizable=0;points=[];" vertex="1" connectable="0" parent="0J6Xlk7utkjPn8iUu8PX-11">
          <mxGeometry x="-0.0571" y="2" relative="1" as="geometry">
            <mxPoint as="offset" />
          </mxGeometry>
        </mxCell>
        <mxCell id="0J6Xlk7utkjPn8iUu8PX-2" value="JS Code Editor" style="rounded=0;whiteSpace=wrap;html=1;fillColor=#dae8fc;strokeColor=#6c8ebf;" vertex="1" parent="1">
          <mxGeometry x="10" y="90" width="100" height="60" as="geometry" />
        </mxCell>
        <mxCell id="0J6Xlk7utkjPn8iUu8PX-9" style="edgeStyle=orthogonalEdgeStyle;rounded=0;orthogonalLoop=1;jettySize=auto;html=1;exitX=0.5;exitY=1;exitDx=0;exitDy=0;entryX=0.5;entryY=1;entryDx=0;entryDy=0;dashed=1;" edge="1" parent="1" source="0J6Xlk7utkjPn8iUu8PX-4" target="0J6Xlk7utkjPn8iUu8PX-2">
          <mxGeometry relative="1" as="geometry" />
        </mxCell>
        <mxCell id="0J6Xlk7utkjPn8iUu8PX-4" value="sanbox&lt;br&gt;&lt;br&gt;VM context" style="rounded=0;whiteSpace=wrap;html=1;fillColor=#fff2cc;strokeColor=#d6b656;" vertex="1" parent="1">
          <mxGeometry x="221" y="90" width="100" height="60" as="geometry" />
        </mxCell>
        <mxCell id="0J6Xlk7utkjPn8iUu8PX-6" style="edgeStyle=orthogonalEdgeStyle;rounded=0;orthogonalLoop=1;jettySize=auto;html=1;" edge="1" parent="1" source="0J6Xlk7utkjPn8iUu8PX-5" target="0J6Xlk7utkjPn8iUu8PX-4">
          <mxGeometry relative="1" as="geometry" />
        </mxCell>
        <mxCell id="0J6Xlk7utkjPn8iUu8PX-7" value="injection" style="edgeLabel;html=1;align=center;verticalAlign=middle;resizable=0;points=[];" vertex="1" connectable="0" parent="0J6Xlk7utkjPn8iUu8PX-6">
          <mxGeometry x="-0.0872" y="-1" relative="1" as="geometry">
            <mxPoint as="offset" />
          </mxGeometry>
        </mxCell>
        <mxCell id="0J6Xlk7utkjPn8iUu8PX-5" value="Utils&lt;br&gt;DAOs&lt;br&gt;..." style="rounded=0;whiteSpace=wrap;html=1;fillColor=#f5f5f5;fontColor=#333333;strokeColor=#666666;" vertex="1" parent="1">
          <mxGeometry x="368" y="50" width="55" height="60" as="geometry" />
        </mxCell>
      </root>
    </mxGraphModel>
  </diagram>
</mxfile>
